# File created by Blade
# Date/Time:  Wed Jan 21 16:33:30 2015
# Frame Rate: 120.000 fps
#------------------------------------------------------
:FULLY-SPECIFIED
:DEGREES
1561
root 20.667627 35.398056 -21.263878 165.643407 97.046655 163.073460
Spine -13.437138 4.930058 -0.580366
Head 7.861753 -2.459258 0.870452
LeftShoulder -14.978192 -31.226169 22.401515
LeftArm 2.647483 -1.868288 -1.316771
LeftForeArm 17.016598 -0.000000 -3.743437
LeftHand -11.341378 -0.000000 -4.346892
LeftHandThumb1 -26.253704 0.000000 33.147579
RightShoulder -11.899473 -7.977142 -11.922080
RightArm 2.346645 43.721393 8.297094
RightForeArm -39.493297 -0.000000 3.617868
RightHand -7.495843 0.000000 6.914397
RightHandThumb1 -24.326973 -0.000000 -32.862282
LeftUpLeg 6.598370 20.413669 3.837689
LeftLeg -4.670872 -0.000000 0.000000
LeftFoot -21.883441 34.629752 -12.943732
LeftToeBase 24.656460 -0.000000 -0.000000
RightUpLeg 5.398871 -9.654435 -0.074442
RightLeg -3.355898 -0.000000 0.000000
RightFoot -20.786632 -21.491056 15.786975
RightToeBase 24.772729 -0.000000 -0.000000
1562
root 20.659808 35.398972 -21.265845 165.301331 96.974981 162.752288
Spine -13.421238 4.899549 -0.530421
Head 7.832500 -2.517174 0.943003
LeftShoulder -14.885783 -31.214961 22.410873
LeftArm 2.589650 -1.848792 -1.375319
LeftForeArm 16.981002 -0.000000 -3.736872
LeftHand -11.384379 0.000000 -4.262555
LeftHandThumb1 -26.253704 0.000000 33.147579
RightShoulder -11.935490 -7.894310 -11.885012
RightArm 2.305100 43.808002 8.262627
RightForeArm -39.469839 -0.000000 3.590123
RightHand -7.537854 -0.000000 6.907457
RightHandThumb1 -24.326973 -0.000000 -32.862282
LeftUpLeg 6.600326 20.507479 3.871307
LeftLeg -4.676650 -0.000000 0.000000
LeftFoot -21.828909 34.476849 -12.869775
LeftToeBase 24.633552 -0.000000 -0.000000
RightUpLeg 5.354395 -9.609509 -0.050531
RightLeg -3.227712 -0.000000 0.000000
RightFoot -20.866149 -21.564624 15.798072
RightToeBase 24.750372 -0.000000 -0.000000
1563
root 20.653343 35.400312 -21.267754 164.988643 96.904082 162.457034
Spine -13.415434 4.870573 -0.489216
Head 7.799696 -2.590875 1.019050
LeftShoulder -14.805296 -31.199184 22.416928
LeftArm 2.575864 -1.834009 -1.417571
LeftForeArm 16.838864 0.000000 -3.739576
LeftHand -11.343535 -0.000000 -4.316236
LeftHandThumb1 -26.253704 0.000000 33.147579
RightShoulder -11.968043 -7.852738 -11.844175
RightArm 2.258151 43.919222 8.245044
RightForeArm -39.545640 -0.000000 3.608751
RightHand -7.533596 -0.000000 6.855297
RightHandThumb1 -24.326973 -0.000000 -32.862282
LeftUpLeg 6.610358 20.607234 3.904066
LeftLeg -4.699098 -0.000000 0.000000
LeftFoot -21.784489 34.303522 -12.841550
LeftToeBase 24.644468 -0.000000 -0.000000
RightUpLeg 5.308440 -9.564674 -0.030115
RightLeg -3.105400 -0.000000 0.000000
RightFoot -20.941602 -21.634843 15.814031
RightToeBase 24.804803 -0.000000 -0.000000
1564
root 20.644927 35.401785 -21.268856 164.602002 96.836584 162.094329
Spine -13.390906 4.839373 -0.454184
Head 7.767236 -2.644166 1.119110
LeftShoulder -14.721386 -31.182382 22.446484
LeftArm 2.546372 -1.786669 -1.469041
LeftForeArm 16.796116 -0.000000 -3.738261
LeftHand -11.316682 -0.000000 -4.192779
LeftHandThumb1 -26.253704 0.000000 33.147579
RightShoulder -11.997653 -7.777744 -11.786898
RightArm 2.204837 43.979951 8.216335
RightForeArm -39.614811 -0.000000 3.636981
RightHand -7.608742 -0.000000 6.894532
RightHandThumb1 -24.326973 -0.000000 -32.862282
LeftUpLeg 6.623458 20.650678 3.945695
LeftLeg -4.717854 -0.000000 0.000000
LeftFoot -21.733082 34.179387 -12.794558
LeftToeBase 24.686842 -0.000000 -0.000000
RightUpLeg 5.272018 -9.434177 0.006484
RightLeg -2.992651 -0.000000 0.000000
RightFoot -21.011720 -21.791236 15.827067
RightToeBase 24.775428 -0.000000 -0.000000
1565
root 20.636342 35.403790 -21.270429 164.219407 96.760204 161.727446
Spine -13.377178 4.796366 -0.419773
Head 7.719665 -2.674955 1.208777
LeftShoulder -14.636387 -31.217653 22.495387
LeftArm 2.506854 -1.738720 -1.514387
LeftForeArm 16.778700 -0.000000 -3.738255
LeftHand -11.233350 -0.000000 -4.182486
LeftHandThumb1 -26.253704 0.000000 33.147579
RightShoulder -12.023476 -7.739810 -11.736820
RightArm 2.160906 44.046217 8.211456
RightForeArm -39.637979 -0.000000 3.691515
RightHand -7.617679 -0.000000 6.930177
RightHandThumb1 -24.326973 -0.000000 -32.862282
LeftUpLeg 6.624446 20.653748 3.977853
LeftLeg -4.732607 -0.000000 0.000000
LeftFoot -21.712562 34.067793 -12.793158
LeftToeBase 24.700085 -0.000000 -0.000000
RightUpLeg 5.234925 -9.295042 0.042461
RightLeg -2.899505 -0.000000 0.000000
RightFoot -21.085683 -21.965270 15.862855
RightToeBase 24.742160 -0.000000 -0.000000
